<svg xmlns="http://www.w3.org/2000/svg" viewBox="0 0 842 595"><linearGradient id="a" gradientUnits="userSpaceOnUse" x1="813.453" y1="324.542" x2="43.723" y2="324.542"><stop offset="0" stop-color="#e61300"/><stop offset="1" stop-color="#a10a00"/></linearGradient><path fill-rule="evenodd" clip-rule="evenodd" fill="url(#a)" d="M609.4 315l-385 19.1h380.8z"/><path fill-rule="evenodd" clip-rule="evenodd" fill="#0B074B" d="M253 270.9c-6.9 0-12.3 2.3-16.2 6.7-2 2.2-3.5 4.9-4.5 7.9s-1.4 6.4-1.3 10.2c.1 3.8.7 7.1 1.8 10.1 1.1 2.9 2.7 5.5 4.8 7.5 4.1 4.2 9.5 6.1 16.4 5.8 6.7-.3 11.9-2.7 15.7-7.1 1.9-2.2 3.4-4.7 4.2-7.7.8-2.9 1.3-6.2 1.3-9.8-.1-3.7-.6-6.9-1.6-9.8-1-2.9-2.5-5.4-4.5-7.5-4.1-4.3-9.4-6.4-16.1-6.3zm329 16.3c.9-4.1 1.9-8.2 2.8-12.3l2.7-12.3h11.9c.7 4 1.4 8.1 2.1 12.1l2.1 12c.9-4 1.8-8 2.6-12l2.7-12H621c-1.7 7.7-3.5 15.3-5.1 23l-5.1 23.1c-4.4.2-8.8.5-13.3.7-.7-4.2-1.5-8.4-2.3-12.6-.7-4.2-1.5-8.5-2.3-12.7-1 4.3-2 8.6-2.9 12.9-1 4.3-1.9 8.6-2.9 12.9-4.6.2-9.3.5-14 .7-1.5-7.9-3-15.8-4.5-23.8s-3-16.1-4.5-24.2h13.3c.7 4.1 1.5 8.2 2.2 12.4.9 3.9 1.7 8 2.4 12.1zm-38.9-26.5c6.2 0 11.5 2.3 15.5 7.4 2 2.6 3.4 5.6 4.2 8.8.8 3.2 1.2 6.6 1.1 10.1-.1 3.5-.6 6.9-1.5 10.1-.9 3.2-2.4 6.2-4.6 9-4.1 5.3-9.5 7.8-15.7 8.1-6.2.3-11.8-1.6-16-6.7-2.2-2.6-3.7-5.7-4.6-9-.9-3.3-1.3-6.8-1.2-10.5.1-3.6.5-7.2 1.5-10.6 1-3.4 2.7-6.5 4.9-9.3 4.5-5.1 10.1-7.4 16.4-7.4zm-.2 11.6c-3 0-5.4 1.2-7.3 3.8-2.4 3.3-3.1 7.7-3.2 11.7-.1 4 .5 8.3 2.8 11.5 1.8 2.5 4.2 3.5 7.1 3.4 3-.1 5.3-1.3 7.2-4 2.3-3.3 3-7.5 3-11.5.1-3.9-.5-8.2-2.6-11.4-1.7-2.5-4-3.5-7-3.5zM500.5 304c.1-7 .2-13.9.2-20.9.1-7 .1-14 .2-21h-11.5l-.3 26.9-.3 26.7c11.1-.6 21.9-1.1 32.5-1.7.1-3.6.1-7.2.2-10.8-6.8.2-13.9.5-21 .8zm-38.3-31.1c0 3.3-.1 6.6-.1 9.9 6.3-.1 12.5-.2 18.6-.4-.1 3.3-.1 6.7-.1 10-6.2.2-12.3.4-18.6.5 0 3.9 0 7.8-.1 11.7 0 3.9-.1 7.8-.1 11.6l-11.1.6c0-9 .1-18 .1-27 0-9.1.1-18.1.1-27.2h31.8c-.1 3.4-.1 6.7-.1 10-6.6.2-13.4.2-20.4.3zm-40.4 8.1c2-3 3.9-5.9 5.9-8.9 2-2.9 4-5.9 5.9-8.8H445c-2.9 4.3-5.9 8.7-8.7 13l-8.7 13.2c3.1 4.6 6.2 9.1 9.2 13.7 3 4.5 6 8.9 9.1 13.4-3.8.2-7.5.4-11.3.6-2.2-3.2-4.5-6.4-6.7-9.7-2.2-3.3-4.4-6.5-6.6-9.8-2.3 3.5-4.6 6.9-6.9 10.4l-6.9 10.5c-4 .2-8.1.4-12.1.6 3.3-5.1 6.8-10.1 10.1-15.1s6.7-10 10-14.9c-2.9-4.2-5.8-8.5-8.8-12.7-3-4.3-6-8.6-9-13h12.1c2 3 4.1 5.9 6 8.9 2 2.7 4 5.7 6 8.6zm-59.6-8.5c0 4.6.1 9.1.1 13.7 9-.2 18-.4 26.7-.5v8.2c-8.7.2-17.6.5-26.6.7v8.6c0 2.9.1 5.7.1 8.6 9.6-.4 19.1-.8 28.4-1.2v8.1c-12.6.6-25.5 1.3-38.6 1.9-.1-9.4-.2-18.7-.2-28.2-.1-9.4-.1-18.9-.2-28.4h38.2v8.2c-9.2.1-18.5.2-27.9.3zm-52.4 27.1c.1 3.8.1 7.5.1 11.3 0 3.8.1 7.5.2 11.2-3.3.2-6.6.3-9.8.5-.1-9.6-.2-19.2-.4-28.8-.1-9.6-.2-19.3-.4-29h19.9c5.6 0 11.6.9 16 4.3 4 3.2 5.3 7.8 5.4 12.6 0 4.8-1.2 9.5-5.2 12.8-4.2 3.5-10.3 4.6-15.8 4.8l-10 .3zm-.3-27.5c0 3.4.1 6.7.1 10.1 0 3.3.1 6.7.1 10 3.3-.1 6.6-.2 10-.2 3-.1 6.2-.7 8.4-2.8 2.2-2 2.9-4.6 2.9-7.4 0-2.7-.8-5.4-3.1-7.3-2.3-2-5.4-2.5-8.5-2.5-3.2.1-6.6.1-9.9.1zm-56.6-7.7c9.5 0 17.2 2.7 22.9 8.2 2.8 2.7 4.9 5.9 6.3 9.5 1.4 3.6 2.2 7.7 2.3 12.2.1 4.5-.6 8.6-1.9 12.3-1.3 3.6-3.3 6.9-6 9.7-5.5 5.7-13 8.7-22.5 9.2-9.8.5-17.7-1.9-23.8-7.2-3.1-2.7-5.4-5.9-7-9.6-1.6-3.7-2.4-8-2.5-12.8-.1-4.8.5-9.1 1.9-12.9 1.4-3.8 3.6-7.2 6.5-10.1 6.1-5.7 13.9-8.5 23.8-8.5z"/></svg>