<?xml version="1.0" encoding="utf-8"?>
<!DOCTYPE svg PUBLIC "-//W3C//DTD SVG 1.1//EN" "http://www.w3.org/Graphics/SVG/1.1/DTD/svg11.dtd">
<svg version="1.1" id="Слой_1" xmlns="http://www.w3.org/2000/svg" xmlns:xlink="http://www.w3.org/1999/xlink" x="0px" y="0px"
	 viewBox="0 0 842 595" enable-background="new 0 0 842 595" xml:space="preserve">
<g>
	<linearGradient id="SVGID_1_" gradientUnits="userSpaceOnUse" x1="813.4531" y1="324.5421" x2="43.723" y2="324.5421">
		<stop  offset="0" style="stop-color:#E61300"/>
		<stop  offset="1" style="stop-color:#A10A00"/>
	</linearGradient>
	<polygon fill-rule="evenodd" clip-rule="evenodd" fill="url(#SVGID_1_)" points="609.4,315 224.4,334.1 605.2,334.1 	"/>
	<path fill-rule="evenodd" clip-rule="evenodd" fill="#0B074B" d="M253,270.9c-6.9,0-12.3,2.3-16.2,6.7c-2,2.2-3.5,4.9-4.5,7.9
		c-1,3-1.4,6.4-1.3,10.2c0.1,3.8,0.7,7.1,1.8,10.1c1.1,2.9,2.7,5.5,4.8,7.5c4.1,4.2,9.5,6.1,16.4,5.8c6.7-0.3,11.9-2.7,15.7-7.1
		c1.9-2.2,3.4-4.7,4.2-7.7c0.8-2.9,1.3-6.2,1.3-9.8c-0.1-3.7-0.6-6.9-1.6-9.8c-1-2.9-2.5-5.4-4.5-7.5
		C265,272.9,259.7,270.8,253,270.9L253,270.9z M582,287.2c0.9-4.1,1.9-8.2,2.8-12.3c0.9-4.1,1.8-8.2,2.7-12.3c4,0,8,0,11.9,0
		c0.7,4,1.4,8.1,2.1,12.1c0.7,4,1.4,8,2.1,12c0.9-4,1.8-8,2.6-12c0.9-4,1.8-8,2.7-12c4,0,8,0,12.1,0c-1.7,7.7-3.5,15.3-5.1,23
		c-1.7,7.7-3.4,15.4-5.1,23.1c-4.4,0.2-8.8,0.5-13.3,0.7c-0.7-4.2-1.5-8.4-2.3-12.6c-0.7-4.2-1.5-8.5-2.3-12.7
		c-1,4.3-2,8.6-2.9,12.9c-1,4.3-1.9,8.6-2.9,12.9c-4.6,0.2-9.3,0.5-14,0.7c-1.5-7.9-3-15.8-4.5-23.8c-1.5-8-3-16.1-4.5-24.2
		c4.5,0,8.9,0,13.3,0c0.7,4.1,1.5,8.2,2.2,12.4C580.5,279,581.3,283.1,582,287.2L582,287.2z M543.1,260.7c6.2,0,11.5,2.3,15.5,7.4
		c2,2.6,3.4,5.6,4.2,8.8c0.8,3.2,1.2,6.6,1.1,10.1c-0.1,3.5-0.6,6.9-1.5,10.1c-0.9,3.2-2.4,6.2-4.6,9c-4.1,5.3-9.5,7.8-15.7,8.1
		c-6.2,0.3-11.8-1.6-16-6.7c-2.2-2.6-3.7-5.7-4.6-9c-0.9-3.3-1.3-6.8-1.2-10.5c0.1-3.6,0.5-7.2,1.5-10.6c1-3.4,2.7-6.5,4.9-9.3
		C531.2,263,536.8,260.7,543.1,260.7L543.1,260.7z M542.9,272.3c-3,0-5.4,1.2-7.3,3.8c-2.4,3.3-3.1,7.7-3.2,11.7
		c-0.1,4,0.5,8.3,2.8,11.5c1.8,2.5,4.2,3.5,7.1,3.4c3-0.1,5.3-1.3,7.2-4c2.3-3.3,3-7.5,3-11.5c0.1-3.9-0.5-8.2-2.6-11.4
		C548.2,273.3,545.9,272.3,542.9,272.3L542.9,272.3z M500.5,304c0.1-7,0.2-13.9,0.2-20.9c0.1-7,0.1-14,0.2-21c-3.9,0-7.6,0-11.5,0
		c-0.1,9-0.2,17.9-0.3,26.9c-0.1,8.9-0.2,17.8-0.3,26.7c11.1-0.6,21.9-1.1,32.5-1.7c0.1-3.6,0.1-7.2,0.2-10.8
		C514.7,303.4,507.6,303.7,500.5,304L500.5,304z M462.2,272.9c0,3.3-0.1,6.6-0.1,9.9c6.3-0.1,12.5-0.2,18.6-0.4
		c-0.1,3.3-0.1,6.7-0.1,10c-6.2,0.2-12.3,0.4-18.6,0.5c0,3.9,0,7.8-0.1,11.7c0,3.9-0.1,7.8-0.1,11.6c-3.7,0.2-7.4,0.4-11.1,0.6
		c0-9,0.1-18,0.1-27c0-9.1,0.1-18.1,0.1-27.2c10.8,0,21.4,0,31.8,0c-0.1,3.4-0.1,6.7-0.1,10C476,272.8,469.2,272.8,462.2,272.9
		L462.2,272.9z M421.8,281c2-3,3.9-5.9,5.9-8.9c2-2.9,4-5.9,5.9-8.8c3.8,0,7.6,0,11.4,0c-2.9,4.3-5.9,8.7-8.7,13
		c-2.9,4.4-5.8,8.8-8.7,13.2c3.1,4.6,6.2,9.1,9.2,13.7c3,4.5,6,8.9,9.1,13.4c-3.8,0.2-7.5,0.4-11.3,0.6c-2.2-3.2-4.5-6.4-6.7-9.7
		c-2.2-3.3-4.4-6.5-6.6-9.8c-2.3,3.5-4.6,6.9-6.9,10.4c-2.3,3.5-4.6,7-6.9,10.5c-4,0.2-8.1,0.4-12.1,0.6c3.3-5.1,6.8-10.1,10.1-15.1
		c3.3-5,6.7-10,10-14.9c-2.9-4.2-5.8-8.5-8.8-12.7c-3-4.3-6-8.6-9-13c4,0,8.1,0,12.1,0c2,3,4.1,5.9,6,8.9
		C417.8,275.1,419.8,278.1,421.8,281L421.8,281z M362.2,272.5c0,4.6,0.1,9.1,0.1,13.7c9-0.2,18-0.4,26.7-0.5c0,2.7,0,5.5,0,8.2
		c-8.7,0.2-17.6,0.5-26.6,0.7c0,2.9,0,5.7,0,8.6c0,2.9,0.1,5.7,0.1,8.6c9.6-0.4,19.1-0.8,28.4-1.2c0,2.7,0,5.4,0,8.1
		c-12.6,0.6-25.5,1.3-38.6,1.9c-0.1-9.4-0.2-18.7-0.2-28.2c-0.1-9.4-0.1-18.9-0.2-28.4c13,0,25.7,0,38.2,0c0,2.7,0,5.5,0,8.2
		C380.9,272.3,371.6,272.4,362.2,272.5L362.2,272.5z M309.8,299.6c0.1,3.8,0.1,7.5,0.1,11.3c0,3.8,0.1,7.5,0.2,11.2
		c-3.3,0.2-6.6,0.3-9.8,0.5c-0.1-9.6-0.2-19.2-0.4-28.8c-0.1-9.6-0.2-19.3-0.4-29c6.7,0,13.3,0,19.9,0c5.6,0,11.6,0.9,16,4.3
		c4,3.2,5.3,7.8,5.4,12.6c0,4.8-1.2,9.5-5.2,12.8c-4.2,3.5-10.3,4.6-15.8,4.8C316.5,299.4,313.1,299.5,309.8,299.6L309.8,299.6z
		 M309.5,272.1c0,3.4,0.1,6.7,0.1,10.1c0,3.3,0.1,6.7,0.1,10c3.3-0.1,6.6-0.2,10-0.2c3-0.1,6.2-0.7,8.4-2.8c2.2-2,2.9-4.6,2.9-7.4
		c0-2.7-0.8-5.4-3.1-7.3c-2.3-2-5.4-2.5-8.5-2.5C316.2,272.1,312.8,272.1,309.5,272.1L309.5,272.1z M252.9,264.4
		c9.5,0,17.2,2.7,22.9,8.2c2.8,2.7,4.9,5.9,6.3,9.5c1.4,3.6,2.2,7.7,2.3,12.2c0.1,4.5-0.6,8.6-1.9,12.3c-1.3,3.6-3.3,6.9-6,9.7
		c-5.5,5.7-13,8.7-22.5,9.2c-9.8,0.5-17.7-1.9-23.8-7.2c-3.1-2.7-5.4-5.9-7-9.6c-1.6-3.7-2.4-8-2.5-12.8c-0.1-4.8,0.5-9.1,1.9-12.9
		c1.4-3.8,3.6-7.2,6.5-10.1C235.2,267.2,243,264.4,252.9,264.4z"/>
</g>
</svg>
